<svg xmlns="http://www.w3.org/2000/svg" viewBox="0 0 223.6 141.96"><defs><style>.cls-1{fill:#fefefe;}.cls-2{fill:#fdfdfd;}</style></defs><g id="Layer_2" data-name="Layer 2"><g id="Layer_1-2" data-name="Layer 1"><path class="cls-1" d="M.37,110.67q0-13.94,0-27.85Q.4,73.4,9.72,72c5.09-.8,5.09-.8,5.09,4.38,0,7.16,0,14.32,0,21.47,0,1.83.32,2.58,2.4,2.55,7.58-.14,15.16-.1,22.74,0,1.72,0,2.34-.4,2.32-2.23-.07-5.09.08-10.19.13-15.29C42.43,76.55,45.29,73,51.5,72c6.37-.93,5.32-1.32,5.33,4.37,0,17.79-.13,35.57.06,53.36.09,9.25-5.83,11.74-13.06,12-1.54.06-1.47-.92-1.47-1.95q0-11.28,0-22.54c0-4.57,0-4.57-4.48-4.57-6.94,0-13.89,0-20.83,0-1.71,0-2.33.38-2.28,2.21.13,5-.17,10.07.09,15.09.4,7.7-4.36,11-10.46,11.61-4.92.52-4,.88-4-3.5-.07-9.14,0-18.28,0-27.42Z"/><path class="cls-1" d="M177.05,100.15c.9.12,1-.58,1.31-1,5.24-6.21,11.84-9.1,19.95-7.75a16,16,0,0,1,13.36,15.22c.22,9.28.12,18.57.06,27.85,0,3.5-2.08,5.67-6.06,6.61-1.5.36-3.08.4-4.61.66-2,.33-2.7-.32-2.67-2.46.13-8.15.06-16.3,0-24.45,0-1.84,0-3.69-.21-5.52a6.41,6.41,0,0,0-4.46-5.93c-7.42-2.37-13.75,2.36-13.9,9.22-.14,6.59,0,13.18-.06,19.78,0,5.78-1.7,7.84-7.42,9a31.75,31.75,0,0,1-3.38.37c-2.72.24-2.72.23-2.72-2.6q0-18.28,0-36.57c0-7.1,3.79-11.06,10.83-11.47,1.4-.09,2.16.22,2,1.82a37.93,37.93,0,0,1-.19,4C178.68,98.12,177.39,98.87,177.05,100.15Z"/><path class="cls-1" d="M199,50.59c1.44-3.65,2.9-7.29,4.33-10.94,2-5.21,4.05-10.43,6.09-15.63a10.24,10.24,0,0,1,13-5.91c1.69.56,1.24,1.58.79,2.67Q219,31.1,214.72,41.41c-4.14,10-8.25,20-12.52,30-1.78,4.12-4.15,7.94-8.14,10.35a12.22,12.22,0,0,1-9.77,1.62c-3.49-1-6.37-5.7-5.81-9.18.12-.75.49-1,1.14-.89.35,0,.69.14,1,.19,4.52.72,8.15-.45,10.3-4.81a7.31,7.31,0,0,1,.75-1.27c3.51-4.49,1.35-8.73-.45-13.06-4.71-11.3-9.31-22.64-14-33.94-.66-1.58,0-2.17,1.31-2.34a15.2,15.2,0,0,1,8.36.73A7,7,0,0,1,190.84,23c2.62,7.11,5.13,14.26,8,21.26.94,2.32-.34,4.1-.4,6.13Z"/><path class="cls-1" d="M147.58,39.7c0-3.11-.14-6.24,0-9.34.12-2.07-.66-2.53-2.52-2.42s-3.82-.17-5.73-.15c-1.29,0-1.54-.46-1.33-1.66a14.54,14.54,0,0,1,.78-3.7,5.81,5.81,0,0,1,6-3.83c3.06.07,3.06,0,3.06-3.12,0-1.42,0-2.83,0-4.25.11-3.38,1.29-5,4.46-6.21A25.53,25.53,0,0,1,158,3.94c1.41-.19,2.06.27,2,1.83-.08,3.54,0,7.08-.05,10.62,0,1.64.52,2.31,2.21,2.25,2.83-.09,5.66,0,8.5,0,1.21,0,1.57.45,1.57,1.63,0,4.35-2.36,7-6.7,7.52-.49.05-1,.15-1.47.19-3.8.36-3.8.36-3.8,4.11,0,4.81,0,9.63,0,14.45,0,.92,0,1.84,0,2.76.17,3.89,1.72,5.36,5.61,5.14a9.73,9.73,0,0,0,4.72-1.07c1.41-.86,2.17-.28,2.85,1a6.51,6.51,0,0,1-2.23,8.77c-4.84,3.12-15.2,3.5-20-2.32-2.7-3.29-3.58-7.32-3.67-11.5-.06-3.19,0-6.38,0-9.57Z"/><path class="cls-1" d="M113.46,26c1.8-1.48,3.16-3.24,4.86-4.68a13.85,13.85,0,0,1,12.88-3.05c4.3,1,6.62,6.77,4.49,10.64-.58,1-1.22.86-2.11.57a16.26,16.26,0,0,0-10.43-.09c-4.88,1.62-7.37,5-7.41,10.16,0,5.81,0,11.61,0,17.42,0,4.88-1.54,6.77-6.27,7.86-6.19,1.44-6.2,1.44-6.19-4.78,0-10.69.16-21.39-.06-32.08-.13-6.84,4.74-9.93,10.29-10.1,1.26,0,1.71.33,1.79,1.65C115.42,21.87,115.14,24.06,113.46,26Z"/><path class="cls-1" d="M35.47.45C26-.33,16.49.13,7,.16,2.4.18,0,2.88,0,7.44Q0,21.15,0,34.87q0,13.5,0,27c0,3.7,0,3.7,3.73,3.21C10.08,64.26,14,61,13.58,54c-.16-2.83,0-5.67-.07-8.5-.06-1.56.4-2.08,2-2.06,6,.07,11.91.07,17.86,0A22.67,22.67,0,0,0,46,39.63c6.31-4.3,8.82-10.45,8.93-18C55.13,9.59,46.16,1.33,35.47.45ZM36.25,31a10.17,10.17,0,0,1-4.34.83c-5.45,0-10.9,0-16.35.07-1.62,0-2.06-.59-2-2.12q.11-8.07,0-16.13c0-1.45.55-1.82,1.88-1.79,3,.06,5.94,0,8.92,0v0c2.76,0,5.52-.07,8.27,0,4.76.13,7.57,2.5,8.65,7.17C42.44,24.29,40.45,29,36.25,31Z"/><path class="cls-1" d="M108.32,108.86c-.13-7.14-3.41-12.49-10-15.4-7-3.07-14.31-3-21.6-1.09-3.75,1-7.23,2.6-9.41,6.07s-.86,7.3,3,8.8a1.72,1.72,0,0,0,2.23-.47c4-4.64,9.34-5.62,15.07-4.94,3.09.37,5.77,1.83,6.86,5,.84,2.41.62,5.26,3.52,6.7-.44.22-.51.29-.54.27-.43-.25-.85-.5-1.26-.77-8.42-5.58-17.08-5.53-25.62-.58s-9.86,17.25-2.9,24c6.33,6.19,14,6.4,22,4.23,3-.83,5.27-3.08,7.84-4.8-.33.7-.84,1.25-1.2,1.88-.8,1.45-.35,3.79.7,4,6.2,1.19,11.32-2.85,11.36-9.09C108.4,124.73,108.47,116.8,108.32,108.86ZM91.64,131a14,14,0,0,1-10.75.52c-3.44-1.23-4.78-3.53-4.41-7.06.3-2.9,2.87-5.31,6.2-5.76,1-.13,2-.1,3-.15a12.09,12.09,0,0,1,6.15,1.32,5.93,5.93,0,0,1,3.45,5.61A5.71,5.71,0,0,1,91.64,131Z"/><path class="cls-1" d="M158.09,108.44c-.2-8-4.72-13.66-12.32-15.92a34.82,34.82,0,0,0-18.26-.46,18.14,18.14,0,0,0-9.68,5.37c-3.08,3.45-2,8.21,2.36,9.82a1.62,1.62,0,0,0,2.07-.38c3.91-4.42,9-5.6,14.61-5.15,4.23.34,7.34,2.86,7.89,7a5.56,5.56,0,0,0,2.34,4.19c.28.2.83.37.43,1a10.15,10.15,0,0,1-1.44-.86c-7-5.7-19.09-5.32-26.34-.3-7.86,5.45-8.8,17.2-2,24,5.63,5.68,17.11,6.4,23.48,3.23a30.41,30.41,0,0,0,6.1-4.43c.18.85-.09,1.12-.35,1.32a3.46,3.46,0,0,0-1,4.24c.54,1.38,2.14.4,3.25.54a4.2,4.2,0,0,0,1.06-.06c4.91-.68,7.79-3.34,7.84-7.67C158.2,125.44,158.3,116.93,158.09,108.44ZM145,126.31a5.69,5.69,0,0,1-4,5,15.42,15.42,0,0,1-10,.39,6.2,6.2,0,0,1-4.69-6.9,6.85,6.85,0,0,1,6.16-6c1-.13,2-.11,3-.16a12.18,12.18,0,0,1,6.52,1.48A6,6,0,0,1,145,126.31Z"/><path class="cls-2" d="M95.64,32.9c-.42-6.36-3.8-10.7-9.55-13.11C79.5,17,72.66,17.19,65.89,19c-3.72,1-7.25,2.6-9,6.5A5.42,5.42,0,0,0,60.65,33a1.44,1.44,0,0,0,1.63-.63c3.52-4.1,8.18-5.13,13.26-4.71,3.15.27,6.17,1.36,7.23,4.64.78,2.39.78,5,3.51,6.4-.17.11-.34.22-.5.34-.47-.3-1-.58-1.41-.9a22.19,22.19,0,0,0-24.74,0c-7.28,5.06-7.11,15.47-3.24,20.63C62.5,67,76.52,67.2,83.21,61.43a5,5,0,0,1,2.73-1.72,5.59,5.59,0,0,1-.67.94,3.35,3.35,0,0,0-.93,4.06c.54,1.44,2,.37,3,.42A7.75,7.75,0,0,0,88.63,65c4.29-.53,6.82-2.87,7.05-7.09A203.27,203.27,0,0,0,95.64,32.9Zm-15,22a12.08,12.08,0,0,1-6.14,1.34c-2,0-4.1-.07-5.88-1.31a6,6,0,0,1,.74-10.52A11.93,11.93,0,0,1,81,45.14,5.65,5.65,0,0,1,80.66,54.92Z"/></g></g></svg>